<svg id="erpoXFUySYB1" xmlns="http://www.w3.org/2000/svg" xmlns:xlink="http://www.w3.org/1999/xlink" viewBox="0 0 300 300" shape-rendering="geometricPrecision" text-rendering="geometricPrecision" project-id="4d938fe8e45b49d69205c65233b3d6f0" export-id="288ff1214ccd46bcb5af1f369518593a" cached="false"><path d="M0,150C0,67.15729,67.15729,0,150,0s150,67.15729,150,150-67.15729,150-150,150-150-67.15729-150-150Z" fill="#d2dbed" stroke-width="0"/><path d="M0,150C0,67.15729,67.15729,0,150,0s150,67.15729,150,150-67.15729,150-150,150-150-67.15729-150-150Z" fill="#d2dbed" stroke-width="0"/><path d="M0,150C0,67.15729,67.15729,0,150,0s150,67.15729,150,150-67.15729,150-150,150-150-67.15729-150-150Z" fill="#d2dbed" stroke-width="0"/></svg>
